<?xml version="1.0" encoding="utf-8"?>
<!-- Generator: Adobe Illustrator 24.1.3, SVG Export Plug-In . SVG Version: 6.00 Build 0)  -->
<svg version="1.1" id="Layer_1" xmlns="http://www.w3.org/2000/svg" xmlns:xlink="http://www.w3.org/1999/xlink" x="0px" y="0px"
	 viewBox="0 0 360 360" style="enable-background:new 0 0 360 360;" xml:space="preserve">
<style type="text/css">
	.st0{fill-rule:evenodd;clip-rule:evenodd;}
	.st1{fill:url(#SVGID_1_);stroke:#000000;stroke-width:0.0974;stroke-miterlimit:10;}
	.st2{fill:url(#SVGID_2_);}
	.st3{fill:url(#SVGID_3_);}
	.st4{fill:url(#SVGID_4_);}
	.st5{fill:#000033;}
	.st6{fill:url(#SVGID_5_);stroke:#000000;stroke-width:0.0942;stroke-miterlimit:10;}
	.st7{fill:url(#SVGID_6_);}
	.st8{fill:url(#SVGID_7_);}
	.st9{fill:url(#SVGID_8_);}
	.st10{opacity:0.16;}
	.st11{fill:#FFFFFF;}
	.st12{fill:none;stroke:#000000;stroke-width:0.0981;stroke-miterlimit:10;}
	.st13{fill-rule:evenodd;clip-rule:evenodd;fill:url(#SVGID_9_);}
	.st14{fill:none;stroke:#000000;stroke-width:0.087;stroke-miterlimit:10;}
	.st15{fill-rule:evenodd;clip-rule:evenodd;fill:url(#SVGID_10_);}
	.st16{fill:none;stroke:#000000;stroke-width:0.0974;stroke-miterlimit:10;}
	.st17{fill-rule:evenodd;clip-rule:evenodd;fill:url(#SVGID_11_);}
	.st18{fill-rule:evenodd;clip-rule:evenodd;fill:url(#SVGID_12_);}
	.st19{fill:url(#SVGID_13_);stroke:#000000;stroke-width:0.0974;stroke-miterlimit:10;}
	.st20{fill:url(#SVGID_14_);stroke:#000000;stroke-width:0.0974;stroke-miterlimit:10;}
	.st21{fill:url(#SVGID_15_);}
	.st22{fill:url(#SVGID_16_);}
	.st23{fill:none;stroke:#000000;stroke-width:0.2084;stroke-miterlimit:10;}
	.st24{fill-rule:evenodd;clip-rule:evenodd;fill:url(#SVGID_17_);}
	.st25{fill-rule:evenodd;clip-rule:evenodd;fill:url(#SVGID_18_);}
	.st26{fill-rule:evenodd;clip-rule:evenodd;fill:url(#SVGID_19_);}
	.st27{fill-rule:evenodd;clip-rule:evenodd;fill:url(#SVGID_20_);}
	.st28{fill-rule:evenodd;clip-rule:evenodd;fill:url(#SVGID_21_);}
</style>
<rect class="st0" width="360" height="360"/>
<g>
	<g>
		<path class="st16" d="M200.17,135.89l10.32,5.96c0.54,0.31,0.54,1.08,0,1.39l-10.03,5.79c-0.25,0.14-0.56,0.14-0.8,0l-37.53-21.67
			c-0.25-0.14-0.56-0.14-0.8,0l-24.74,14.28c-0.25,0.14-0.4,0.41-0.4,0.7v28.51c0,0.29,0.15,0.55,0.4,0.7l24.51,14.15
			c0.25,0.14,0.56,0.14,0.8,0l24.94-14.4c0.25-0.14,0.4-0.41,0.4-0.7v-6.86c0-0.29-0.15-0.55-0.4-0.7l-24.12-13.93
			c-0.54-0.31-1.21,0.08-1.21,0.7v12.47c0,0.29,0.15,0.55,0.4,0.7l5.98,3.45c0.54,0.31,0.54,1.08,0,1.39l-6.38,3.68l-0.02,0.01
			l-12.44-7.19c-0.25-0.14-0.4-0.41-0.4-0.7v-14.1c0-0.29,0.15-0.55,0.4-0.7l12.27-7.09c0.25-0.14,0.56-0.14,0.8,0l37.53,21.67
			c0.25,0.14,0.56,0.14,0.8,0l23.71-13.69l1.25-0.72c0.25-0.14,0.4-0.41,0.4-0.7v-11.57c0-0.29-0.15-0.55-0.4-0.7l-2.46-1.42
			c-0.54-0.31-0.54-1.08,0-1.39l2.47-1.43c0.25-0.14,0.4-0.41,0.4-0.7v-11.05c0-0.29-0.15-0.55-0.4-0.7l-24.73-14.28
			c-0.25-0.14-0.56-0.14-0.8,0l-24.72,14.27c-0.25,0.14-0.4,0.41-0.4,0.7v7.86c0,0.29,0.15,0.55,0.4,0.7l10.86,6.27
			c0.54,0.31,1.21-0.08,1.21-0.7v-6.93c0-0.29,0.15-0.55,0.4-0.7l12.25-7.07c0.25-0.14,0.56-0.14,0.8,0l9.36,5.4
			c0.54,0.31,0.54,1.08,0,1.39l-9.87,5.7"/>
		<linearGradient id="SVGID_1_" gradientUnits="userSpaceOnUse" x1="154.2278" y1="156.4903" x2="238.8719" y2="121.2893">
			<stop  offset="0" style="stop-color:#D5A940"/>
			<stop  offset="1" style="stop-color:#785D1B"/>
		</linearGradient>
		<path style="fill-rule:evenodd;clip-rule:evenodd;fill:url(#SVGID_1_);" d="M200.17,135.89l10.32,5.96c0.54,0.31,0.54,1.08,0,1.39
			l-10.03,5.79c-0.25,0.14-0.56,0.14-0.8,0l-37.53-21.67c-0.25-0.14-0.56-0.14-0.8,0l-24.74,14.28c-0.25,0.14-0.4,0.41-0.4,0.7
			v28.51c0,0.29,0.15,0.55,0.4,0.7l24.51,14.15c0.25,0.14,0.56,0.14,0.8,0l24.94-14.4c0.25-0.14,0.4-0.41,0.4-0.7v-6.86
			c0-0.29-0.15-0.55-0.4-0.7l-24.12-13.93c-0.54-0.31-1.21,0.08-1.21,0.7v12.47c0,0.29,0.15,0.55,0.4,0.7l5.98,3.45
			c0.54,0.31,0.54,1.08,0,1.39l-6.38,3.68l-0.02,0.01l-12.44-7.19c-0.25-0.14-0.4-0.41-0.4-0.7v-14.1c0-0.29,0.15-0.55,0.4-0.7
			l12.27-7.09c0.25-0.14,0.56-0.14,0.8,0l37.53,21.67c0.25,0.14,0.56,0.14,0.8,0l23.71-13.69l1.25-0.72c0.25-0.14,0.4-0.41,0.4-0.7
			v-11.57c0-0.29-0.15-0.55-0.4-0.7l-2.46-1.42c-0.54-0.31-0.54-1.08,0-1.39l2.47-1.43c0.25-0.14,0.4-0.41,0.4-0.7v-11.05
			c0-0.29-0.15-0.55-0.4-0.7l-24.73-14.28c-0.25-0.14-0.56-0.14-0.8,0l-24.72,14.27c-0.25,0.14-0.4,0.41-0.4,0.7v7.86
			c0,0.29,0.15,0.55,0.4,0.7l10.86,6.27c0.54,0.31,1.21-0.08,1.21-0.7v-6.93c0-0.29,0.15-0.55,0.4-0.7l12.25-7.07
			c0.25-0.14,0.56-0.14,0.8,0l9.36,5.4c0.54,0.31,0.54,1.08,0,1.39l-9.87,5.7"/>
	</g>
	<g>
		<path class="st11" d="M102.31,231.84c0-3.12,0.58-6.04,1.76-8.75c1.17-2.71,2.88-5.07,5.13-7.08c2.25-2,5.01-3.58,8.29-4.74
			c3.28-1.15,7.04-1.73,11.27-1.73c1.53,0,3.07,0.08,4.61,0.24c1.54,0.16,3.06,0.41,4.57,0.75s2.97,0.77,4.4,1.29
			s2.78,1.14,4.07,1.86l-4.14,6.81c-0.78-0.45-1.66-0.86-2.64-1.23c-0.98-0.37-2.04-0.68-3.16-0.94s-2.29-0.45-3.49-0.58
			c-1.2-0.13-2.41-0.2-3.62-0.2c-2.8,0-5.29,0.35-7.49,1.06s-4.05,1.7-5.56,2.98s-2.67,2.8-3.46,4.58
			c-0.79,1.78-1.19,3.72-1.19,5.84c0,2.19,0.42,4.21,1.25,6.04c0.83,1.83,2.01,3.41,3.54,4.74c1.53,1.32,3.38,2.36,5.56,3.11
			c2.17,0.75,4.6,1.12,7.29,1.12c2.14,0,4.09-0.24,5.87-0.72c1.78-0.48,3.33-1.17,4.65-2.06c1.32-0.89,2.4-1.96,3.23-3.22
			c0.83-1.26,1.38-2.67,1.64-4.24h-15.48v-7.4h23.57v0.03l0.03-0.03c0.47,2.27,0.62,4.48,0.44,6.62c-0.18,2.15-0.67,4.17-1.47,6.07
			c-0.8,1.9-1.9,3.64-3.3,5.23c-1.4,1.59-3.07,2.95-5.02,4.1s-4.16,2.03-6.64,2.67c-2.48,0.63-5.19,0.95-8.14,0.95
			c-4.12,0-7.81-0.6-11.07-1.81c-3.26-1.21-6.03-2.86-8.29-4.96c-2.27-2.1-4-4.56-5.2-7.37
			C102.91,238.04,102.31,235.03,102.31,231.84z"/>
		<path class="st11" d="M166.8,216.38c-0.83,0-1.58-0.12-2.25-0.35c-0.67-0.24-1.24-0.56-1.72-0.96c-0.47-0.41-0.84-0.88-1.09-1.42
			c-0.25-0.54-0.38-1.11-0.38-1.72c0-0.62,0.13-1.21,0.38-1.74c0.25-0.54,0.62-1.01,1.09-1.4s1.04-0.71,1.72-0.95
			c0.67-0.24,1.42-0.35,2.25-0.35c0.85,0,1.61,0.12,2.28,0.35s1.24,0.55,1.72,0.95s0.84,0.87,1.09,1.4
			c0.26,0.54,0.38,1.12,0.38,1.74c0,0.61-0.13,1.18-0.38,1.72c-0.25,0.54-0.62,1.01-1.09,1.42c-0.47,0.41-1.04,0.73-1.72,0.96
			S167.65,216.38,166.8,216.38z M162.6,220.95h8.39v33.46h-8.39V220.95z"/>
		<path class="st11" d="M186.79,227.24h-8.08v-6.3h8.08v-10.41h8.39v10.41h8.08v6.3h-8.08v27.17h-8.39V227.24z"/>
		<path class="st11" d="M221.62,243.86c2.23,1.1,4.62,1.9,7.16,2.4c2.54,0.5,5.02,0.75,7.44,0.75c2.16,0,4.02-0.17,5.59-0.52
			c1.57-0.35,2.86-0.83,3.89-1.43c1.02-0.6,1.78-1.32,2.27-2.16c0.49-0.83,0.74-1.73,0.74-2.69c0-1.3-0.44-2.47-1.33-3.5
			c-0.89-1.03-2.24-1.81-4.04-2.33c-1.81-0.52-4.08-0.72-6.83-0.61s-5.99,0.65-9.71,1.62l0.03-6.64l16.56-10.78h-23.45v-7.88h35.48
			v7.71l-14.58,9.25c2.67,0,5.05,0.34,7.15,1.02s3.87,1.62,5.3,2.81s2.53,2.6,3.29,4.23c0.76,1.63,1.13,3.37,1.13,5.25
			c0,2.21-0.49,4.22-1.46,6.03c-0.97,1.81-2.39,3.35-4.24,4.62c-1.85,1.28-4.12,2.26-6.79,2.96c-2.68,0.7-5.71,1.05-9.09,1.05
			c-3.59,0-6.91-0.38-9.95-1.15c-3.04-0.77-5.94-1.83-8.68-3.19L221.62,243.86z"/>
	</g>
</g>
</svg>
