<?xml version="1.0" encoding="utf-8"?>
<!-- Generator: Adobe Illustrator 24.1.3, SVG Export Plug-In . SVG Version: 6.00 Build 0)  -->
<svg version="1.1" id="Layer_1" xmlns="http://www.w3.org/2000/svg" xmlns:xlink="http://www.w3.org/1999/xlink" x="0px" y="0px"
	 viewBox="0 0 360 360" style="enable-background:new 0 0 360 360;" xml:space="preserve">
<style type="text/css">
	.st0{fill-rule:evenodd;clip-rule:evenodd;}
	.st1{fill:url(#SVGID_1_);stroke:#000000;stroke-width:0.0974;stroke-miterlimit:10;}
	.st2{fill:url(#SVGID_2_);}
	.st3{fill:url(#SVGID_3_);}
	.st4{fill:url(#SVGID_4_);}
	.st5{fill:#000033;}
	.st6{fill:url(#SVGID_5_);stroke:#000000;stroke-width:0.0942;stroke-miterlimit:10;}
	.st7{fill:url(#SVGID_6_);}
	.st8{fill:url(#SVGID_7_);}
	.st9{fill:url(#SVGID_8_);}
	.st10{opacity:0.16;}
	.st11{fill:#FFFFFF;}
	.st12{fill:none;stroke:#000000;stroke-width:0.0981;stroke-miterlimit:10;}
	.st13{fill-rule:evenodd;clip-rule:evenodd;fill:url(#SVGID_9_);}
	.st14{fill:none;stroke:#000000;stroke-width:0.087;stroke-miterlimit:10;}
	.st15{fill-rule:evenodd;clip-rule:evenodd;fill:url(#SVGID_10_);}
	.st16{fill:none;stroke:#000000;stroke-width:0.0974;stroke-miterlimit:10;}
	.st17{fill-rule:evenodd;clip-rule:evenodd;fill:url(#SVGID_11_);}
	.st18{fill-rule:evenodd;clip-rule:evenodd;fill:url(#SVGID_12_);}
	.st19{fill:url(#SVGID_13_);stroke:#000000;stroke-width:0.0974;stroke-miterlimit:10;}
	.st20{fill:url(#SVGID_14_);stroke:#000000;stroke-width:0.0974;stroke-miterlimit:10;}
	.st21{fill:url(#SVGID_15_);}
	.st22{fill:url(#SVGID_16_);}
	.st23{fill:none;stroke:#000000;stroke-width:0.2084;stroke-miterlimit:10;}
	.st24{fill-rule:evenodd;clip-rule:evenodd;fill:url(#SVGID_17_);}
	.st25{fill-rule:evenodd;clip-rule:evenodd;fill:url(#SVGID_18_);}
	.st26{fill-rule:evenodd;clip-rule:evenodd;fill:url(#SVGID_19_);}
	.st27{fill-rule:evenodd;clip-rule:evenodd;fill:url(#SVGID_20_);}
	.st28{fill-rule:evenodd;clip-rule:evenodd;fill:url(#SVGID_21_);}
</style>
<g>
	<g>
		<path class="st14" d="M109.02,171.45l9.27,5.35c0.48,0.28,0.48,0.97,0,1.25l-9.02,5.2c-0.22,0.13-0.5,0.13-0.72,0l-33.73-19.47
			c-0.22-0.13-0.5-0.13-0.72,0l-22.24,12.84c-0.22,0.13-0.36,0.37-0.36,0.63v25.62c0,0.26,0.14,0.5,0.36,0.63l22.03,12.72
			c0.22,0.13,0.5,0.13,0.72,0l22.42-12.94c0.22-0.13,0.36-0.37,0.36-0.63v-6.16c0-0.26-0.14-0.5-0.36-0.63l-21.68-12.52
			c-0.48-0.28-1.08,0.07-1.08,0.63v11.21c0,0.26,0.14,0.5,0.36,0.63l5.37,3.1c0.48,0.28,0.48,0.97,0,1.25l-5.73,3.31l-0.02,0.01
			l-11.18-6.46c-0.22-0.13-0.36-0.37-0.36-0.63v-12.67c0-0.26,0.14-0.5,0.36-0.63l11.03-6.37c0.22-0.13,0.5-0.13,0.72,0l33.73,19.48
			c0.22,0.13,0.5,0.13,0.72,0l21.31-12.3l1.12-0.65c0.22-0.13,0.36-0.37,0.36-0.63v-10.4c0-0.26-0.14-0.5-0.36-0.63l-2.22-1.28
			c-0.48-0.28-0.48-0.97,0-1.25l2.22-1.28c0.22-0.13,0.36-0.37,0.36-0.63v-9.93c0-0.26-0.14-0.5-0.36-0.63l-22.23-12.84
			c-0.22-0.13-0.5-0.13-0.72,0l-22.22,12.83c-0.22,0.13-0.36,0.37-0.36,0.63v7.07c0,0.26,0.14,0.5,0.36,0.63l9.76,5.64
			c0.48,0.28,1.08-0.07,1.08-0.63v-6.23c0-0.26,0.14-0.5,0.36-0.63l11.01-6.35c0.22-0.13,0.5-0.13,0.72,0l8.41,4.85
			c0.48,0.28,0.48,0.97,0,1.25l-8.87,5.12"/>
		<linearGradient id="SVGID_1_" gradientUnits="userSpaceOnUse" x1="67.7234" y1="189.9653" x2="143.8" y2="158.3273">
			<stop  offset="0" style="stop-color:#D5A940"/>
			<stop  offset="1" style="stop-color:#785D1B"/>
		</linearGradient>
		<path style="fill-rule:evenodd;clip-rule:evenodd;fill:url(#SVGID_1_);" d="M109.02,171.45l9.27,5.35c0.48,0.28,0.48,0.97,0,1.25
			l-9.02,5.2c-0.22,0.13-0.5,0.13-0.72,0l-33.73-19.47c-0.22-0.13-0.5-0.13-0.72,0l-22.24,12.84c-0.22,0.13-0.36,0.37-0.36,0.63
			v25.62c0,0.26,0.14,0.5,0.36,0.63l22.03,12.72c0.22,0.13,0.5,0.13,0.72,0l22.42-12.94c0.22-0.13,0.36-0.37,0.36-0.63v-6.16
			c0-0.26-0.14-0.5-0.36-0.63l-21.68-12.52c-0.48-0.28-1.08,0.07-1.08,0.63v11.21c0,0.26,0.14,0.5,0.36,0.63l5.37,3.1
			c0.48,0.28,0.48,0.97,0,1.25l-5.73,3.31l-0.02,0.01l-11.18-6.46c-0.22-0.13-0.36-0.37-0.36-0.63v-12.67c0-0.26,0.14-0.5,0.36-0.63
			l11.03-6.37c0.22-0.13,0.5-0.13,0.72,0l33.73,19.48c0.22,0.13,0.5,0.13,0.72,0l21.31-12.3l1.12-0.65
			c0.22-0.13,0.36-0.37,0.36-0.63v-10.4c0-0.26-0.14-0.5-0.36-0.63l-2.22-1.28c-0.48-0.28-0.48-0.97,0-1.25l2.22-1.28
			c0.22-0.13,0.36-0.37,0.36-0.63v-9.93c0-0.26-0.14-0.5-0.36-0.63l-22.23-12.84c-0.22-0.13-0.5-0.13-0.72,0l-22.22,12.83
			c-0.22,0.13-0.36,0.37-0.36,0.63v7.07c0,0.26,0.14,0.5,0.36,0.63l9.76,5.64c0.48,0.28,1.08-0.07,1.08-0.63v-6.23
			c0-0.26,0.14-0.5,0.36-0.63l11.01-6.35c0.22-0.13,0.5-0.13,0.72,0l8.41,4.85c0.48,0.28,0.48,0.97,0,1.25l-8.87,5.12"/>
	</g>
	<g>
		<path d="M145.45,184.2c0-3.27,0.61-6.33,1.84-9.18c1.23-2.85,3.02-5.32,5.39-7.42c2.36-2.1,5.26-3.76,8.7-4.97
			c3.44-1.21,7.39-1.82,11.83-1.82c1.61,0,3.22,0.09,4.84,0.25c1.62,0.17,3.21,0.43,4.79,0.79c1.58,0.36,3.11,0.81,4.61,1.35
			c1.5,0.55,2.92,1.2,4.27,1.95l-4.34,7.14c-0.81-0.48-1.74-0.91-2.77-1.29c-1.03-0.39-2.14-0.71-3.32-0.98s-2.4-0.47-3.66-0.61
			c-1.26-0.14-2.52-0.21-3.79-0.21c-2.94,0-5.55,0.37-7.86,1.12s-4.25,1.79-5.83,3.12c-1.59,1.34-2.8,2.94-3.63,4.81
			c-0.83,1.86-1.25,3.91-1.25,6.13c0,2.3,0.44,4.41,1.31,6.34c0.87,1.92,2.11,3.58,3.72,4.97c1.61,1.39,3.55,2.48,5.83,3.26
			c2.28,0.78,4.83,1.18,7.65,1.18c2.24,0,4.3-0.25,6.16-0.76c1.86-0.51,3.49-1.22,4.88-2.16c1.39-0.93,2.52-2.06,3.39-3.38
			c0.87-1.32,1.45-2.8,1.73-4.45h-16.25v-7.77h24.73v0.03l0.03-0.03c0.5,2.38,0.65,4.7,0.46,6.95c-0.19,2.25-0.7,4.37-1.55,6.37
			c-0.84,1.99-2,3.82-3.47,5.49c-1.47,1.67-3.22,3.1-5.27,4.3s-4.36,2.13-6.96,2.8c-2.6,0.66-5.45,1-8.54,1
			c-4.32,0-8.2-0.63-11.62-1.9c-3.42-1.27-6.32-3.01-8.7-5.21c-2.38-2.2-4.2-4.78-5.46-7.74
			C146.08,190.7,145.45,187.55,145.45,184.2z"/>
		<path d="M213.12,167.98c-0.87,0-1.66-0.12-2.37-0.37c-0.71-0.25-1.3-0.59-1.8-1.01c-0.5-0.43-0.88-0.92-1.15-1.49
			c-0.27-0.57-0.4-1.17-0.4-1.8c0-0.65,0.13-1.26,0.4-1.83c0.27-0.57,0.65-1.06,1.15-1.47c0.5-0.42,1.1-0.75,1.8-1
			c0.7-0.25,1.49-0.37,2.37-0.37c0.89,0,1.69,0.12,2.39,0.37c0.7,0.25,1.3,0.58,1.8,1c0.5,0.42,0.88,0.91,1.15,1.47
			c0.27,0.57,0.4,1.18,0.4,1.83c0,0.64-0.13,1.23-0.4,1.8c-0.27,0.57-0.65,1.06-1.15,1.49c-0.5,0.43-1.1,0.76-1.8,1.01
			C214.81,167.85,214.02,167.98,213.12,167.98z M208.72,172.77h8.81v35.11h-8.81V172.77z"/>
		<path d="M234.1,179.38h-8.48v-6.61h8.48v-10.92h8.81v10.92h8.48v6.61h-8.48v28.51h-8.81V179.38z"/>
		<path d="M270.65,196.81c2.34,1.15,4.84,1.99,7.51,2.51c2.67,0.53,5.27,0.79,7.81,0.79c2.26,0,4.22-0.18,5.86-0.55
			c1.65-0.37,3.01-0.87,4.08-1.5c1.07-0.63,1.86-1.39,2.38-2.26c0.52-0.87,0.77-1.82,0.77-2.83c0-1.37-0.47-2.59-1.4-3.68
			c-0.93-1.08-2.35-1.89-4.24-2.44c-1.89-0.55-4.29-0.76-7.17-0.64c-2.89,0.12-6.28,0.68-10.19,1.7l0.03-6.96l17.38-11.31h-24.61
			v-8.27h37.23v8.09l-15.3,9.7c2.8,0,5.3,0.36,7.5,1.07c2.2,0.71,4.06,1.7,5.56,2.95c1.51,1.25,2.66,2.73,3.45,4.43
			c0.79,1.71,1.19,3.54,1.19,5.51c0,2.32-0.51,4.43-1.53,6.32c-1.02,1.9-2.5,3.51-4.45,4.85c-1.94,1.34-4.32,2.38-7.13,3.11
			c-2.81,0.73-5.99,1.1-9.54,1.1c-3.77,0-7.25-0.4-10.45-1.21c-3.19-0.8-6.23-1.92-9.11-3.35L270.65,196.81z"/>
	</g>
</g>
</svg>
