<?xml version="1.0" encoding="utf-8"?>
<!-- Generator: Adobe Illustrator 24.1.3, SVG Export Plug-In . SVG Version: 6.00 Build 0)  -->
<svg version="1.1" id="Layer_1" xmlns="http://www.w3.org/2000/svg" xmlns:xlink="http://www.w3.org/1999/xlink" x="0px" y="0px"
	 viewBox="0 0 360 360" style="enable-background:new 0 0 360 360;" xml:space="preserve">
<style type="text/css">
	.st0{fill-rule:evenodd;clip-rule:evenodd;}
	.st1{fill:url(#SVGID_1_);stroke:#000000;stroke-width:0.0974;stroke-miterlimit:10;}
	.st2{fill:url(#SVGID_2_);}
	.st3{fill:url(#SVGID_3_);}
	.st4{fill:url(#SVGID_4_);}
	.st5{fill:#000033;}
	.st6{fill:url(#SVGID_5_);stroke:#000000;stroke-width:0.0942;stroke-miterlimit:10;}
	.st7{fill:url(#SVGID_6_);}
	.st8{fill:url(#SVGID_7_);}
	.st9{fill:url(#SVGID_8_);}
	.st10{opacity:0.16;}
	.st11{fill:#FFFFFF;}
	.st12{fill:none;stroke:#000000;stroke-width:0.0981;stroke-miterlimit:10;}
	.st13{fill-rule:evenodd;clip-rule:evenodd;fill:url(#SVGID_9_);}
	.st14{fill:none;stroke:#000000;stroke-width:0.087;stroke-miterlimit:10;}
	.st15{fill-rule:evenodd;clip-rule:evenodd;fill:url(#SVGID_10_);}
	.st16{fill:none;stroke:#000000;stroke-width:0.0974;stroke-miterlimit:10;}
	.st17{fill-rule:evenodd;clip-rule:evenodd;fill:url(#SVGID_11_);}
	.st18{fill-rule:evenodd;clip-rule:evenodd;fill:url(#SVGID_12_);}
	.st19{fill:url(#SVGID_13_);stroke:#000000;stroke-width:0.0974;stroke-miterlimit:10;}
	.st20{fill:url(#SVGID_14_);stroke:#000000;stroke-width:0.0974;stroke-miterlimit:10;}
	.st21{fill:url(#SVGID_15_);}
	.st22{fill:url(#SVGID_16_);}
	.st23{fill:none;stroke:#000000;stroke-width:0.2084;stroke-miterlimit:10;}
	.st24{fill-rule:evenodd;clip-rule:evenodd;fill:url(#SVGID_17_);}
	.st25{fill-rule:evenodd;clip-rule:evenodd;fill:url(#SVGID_18_);}
	.st26{fill-rule:evenodd;clip-rule:evenodd;fill:url(#SVGID_19_);}
	.st27{fill-rule:evenodd;clip-rule:evenodd;fill:url(#SVGID_20_);}
	.st28{fill-rule:evenodd;clip-rule:evenodd;fill:url(#SVGID_21_);}
</style>
<g>
	<path class="st16" d="M221.01,159.66l22.06,12.74c1.15,0.66,1.15,2.32,0,2.98l-21.45,12.39c-0.53,0.31-1.19,0.31-1.72,0
		l-80.27-46.34c-0.53-0.31-1.19-0.31-1.72,0l-52.92,30.55c-0.53,0.31-0.86,0.87-0.86,1.49v60.97c0,0.61,0.33,1.18,0.86,1.49
		l52.43,30.27c0.53,0.31,1.19,0.31,1.72,0l53.35-30.8c0.53-0.31,0.86-0.87,0.86-1.49v-14.67c0-0.61-0.33-1.18-0.86-1.49
		l-51.58-29.79c-1.15-0.66-2.58,0.17-2.58,1.49v26.68c0,0.61,0.33,1.18,0.86,1.49l12.78,7.38c1.15,0.66,1.15,2.32,0,2.98
		l-13.64,7.88l-0.04,0.03l-26.61-15.37c-0.53-0.31-0.86-0.87-0.86-1.49v-30.16c0-0.61,0.33-1.18,0.86-1.49l26.24-15.16
		c0.53-0.31,1.19-0.31,1.72,0l80.27,46.35c0.53,0.31,1.19,0.31,1.72,0l50.72-29.28l2.68-1.55c0.53-0.31,0.86-0.87,0.86-1.49v-24.74
		c0-0.61-0.33-1.18-0.86-1.49l-5.27-3.04c-1.15-0.66-1.15-2.32,0-2.98l5.27-3.05c0.53-0.31,0.86-0.87,0.86-1.49v-23.64
		c0-0.61-0.33-1.18-0.86-1.49l-52.9-30.55c-0.53-0.31-1.19-0.31-1.72,0l-52.87,30.53c-0.53,0.31-0.86,0.87-0.86,1.49v16.81
		c0,0.61,0.33,1.18,0.86,1.49l23.24,13.41c1.15,0.66,2.58-0.17,2.58-1.49v-14.82c0-0.61,0.33-1.18,0.86-1.49l26.19-15.12
		c0.53-0.31,1.19-0.31,1.72,0l20.01,11.55c1.15,0.66,1.15,2.32,0,2.98l-21.11,12.19"/>
	<linearGradient id="SVGID_1_" gradientUnits="userSpaceOnUse" x1="84.1254" y1="180" x2="275.8746" y2="180">
		<stop  offset="0" style="stop-color:#D5A940"/>
		<stop  offset="1" style="stop-color:#785D1B"/>
	</linearGradient>
	<path style="fill-rule:evenodd;clip-rule:evenodd;fill:url(#SVGID_1_);" d="M221.01,159.66l22.06,12.74c1.15,0.66,1.15,2.32,0,2.98
		l-21.45,12.39c-0.53,0.31-1.19,0.31-1.72,0l-80.27-46.34c-0.53-0.31-1.19-0.31-1.72,0l-52.92,30.55c-0.53,0.31-0.86,0.87-0.86,1.49
		v60.97c0,0.61,0.33,1.18,0.86,1.49l52.43,30.27c0.53,0.31,1.19,0.31,1.72,0l53.35-30.8c0.53-0.31,0.86-0.87,0.86-1.49v-14.67
		c0-0.61-0.33-1.18-0.86-1.49l-51.58-29.79c-1.15-0.66-2.58,0.17-2.58,1.49v26.68c0,0.61,0.33,1.18,0.86,1.49l12.78,7.38
		c1.15,0.66,1.15,2.32,0,2.98l-13.64,7.88l-0.04,0.03l-26.61-15.37c-0.53-0.31-0.86-0.87-0.86-1.49v-30.16
		c0-0.61,0.33-1.18,0.86-1.49l26.24-15.16c0.53-0.31,1.19-0.31,1.72,0l80.27,46.35c0.53,0.31,1.19,0.31,1.72,0l50.72-29.28
		l2.68-1.55c0.53-0.31,0.86-0.87,0.86-1.49v-24.74c0-0.61-0.33-1.18-0.86-1.49l-5.27-3.04c-1.15-0.66-1.15-2.32,0-2.98l5.27-3.05
		c0.53-0.31,0.86-0.87,0.86-1.49v-23.64c0-0.61-0.33-1.18-0.86-1.49l-52.9-30.55c-0.53-0.31-1.19-0.31-1.72,0l-52.87,30.53
		c-0.53,0.31-0.86,0.87-0.86,1.49v16.81c0,0.61,0.33,1.18,0.86,1.49l23.24,13.41c1.15,0.66,2.58-0.17,2.58-1.49v-14.82
		c0-0.61,0.33-1.18,0.86-1.49l26.19-15.12c0.53-0.31,1.19-0.31,1.72,0l20.01,11.55c1.15,0.66,1.15,2.32,0,2.98l-21.11,12.19"/>
</g>
</svg>
